<?xml version="1.0" standalone="no"?>
<svg xmlns="http://www.w3.org/2000/svg" xmlns:xlink="http://www.w3.org/1999/xlink" width="1025pt" height="472pt" viewBox="0.00 0.00 1025.00 472.20">
<g id="graph0" class="graph" transform="translate(4,468.20001220703125) scale(1)" data-name="">
<polygon fill="white" stroke="none" points="-4,4 -4,-468.2 1021,-468.2 1021,4 -4,4" style=""/>
<!-- usb_test.next_state_graphrename_0 -->
<g id="node1" class="node" pointer-events="visible" data-name="usb_test.next_state_graphrename_0">

<ellipse fill="none" stroke="black" cx="375" cy="-446.2" rx="84.01" ry="18" style=""/>
<text text-anchor="middle" x="375" y="-442" font-family="Times,serif" font-size="14.00" style="">usb_test.next_state</text>
</g>
<!-- Branch_graphrename_1 -->
<g id="node2" class="node" pointer-events="visible" data-name="Branch_graphrename_1">

<ellipse fill="none" stroke="black" cx="375" cy="-373.2" rx="38.85" ry="18" style=""/>
<text text-anchor="middle" x="375" y="-369" font-family="Times,serif" font-size="14.00" style="">Branch</text>
</g>
<!-- usb_test.next_state_graphrename_0&#45;&gt;Branch_graphrename_1 -->
<g id="edge1" class="edge" data-name="usb_test.next_state_graphrename_0-&gt;Branch_graphrename_1">

<path fill="none" stroke="black" d="M375,-428.01C375,-420.43 375,-411.3 375,-402.74" style=""/>
<polygon fill="black" stroke="black" points="378.5,-402.74 375,-392.74 371.5,-402.74 378.5,-402.74" style=""/>
</g>
<!-- Eq_graphrename_2 -->
<g id="node3" class="node" pointer-events="visible" data-name="Eq_graphrename_2">

<ellipse fill="none" stroke="black" cx="375" cy="-284.4" rx="27" ry="18" style=""/>
<text text-anchor="middle" x="375" y="-280.2" font-family="Times,serif" font-size="14.00" style="">Eq</text>
</g>
<!-- Branch_graphrename_1&#45;&gt;Eq_graphrename_2 -->
<g id="edge2" class="edge" data-name="Branch_graphrename_1-&gt;Eq_graphrename_2">

<path fill="none" stroke="black" d="M375,-355.05C375,-343.36 375,-327.59 375,-314.02" style=""/>
<polygon fill="black" stroke="black" points="378.5,-314.32 375,-304.32 371.5,-314.32 378.5,-314.32" style=""/>
<text text-anchor="middle" x="394.83" y="-324.6" font-family="Times,serif" font-size="14.00" style="">COND</text>
</g>
<!-- Branch_graphrename_4 -->
<g id="node4" class="node" pointer-events="visible" data-name="Branch_graphrename_4">

<ellipse fill="none" stroke="black" cx="276" cy="-284.4" rx="38.85" ry="18" style=""/>
<text text-anchor="middle" x="276" y="-280.2" font-family="Times,serif" font-size="14.00" style="">Branch</text>
</g>
<!-- Branch_graphrename_1&#45;&gt;Branch_graphrename_4 -->
<g id="edge3" class="edge" data-name="Branch_graphrename_1-&gt;Branch_graphrename_4">

<path fill="none" stroke="black" d="M357.19,-356.92C350.1,-350.81 341.87,-343.69 334.45,-337.2 323.71,-327.81 311.93,-317.39 301.78,-308.37" style=""/>
<polygon fill="black" stroke="black" points="304.27,-305.91 294.47,-301.88 299.62,-311.14 304.27,-305.91" style=""/>
<text text-anchor="middle" x="352.28" y="-324.6" font-family="Times,serif" font-size="14.00" style="">TRUE</text>
</g>
<!-- Branch_graphrename_7 -->
<g id="node5" class="node" pointer-events="visible" data-name="Branch_graphrename_7">

<ellipse fill="none" stroke="black" cx="558" cy="-284.4" rx="38.85" ry="18" style=""/>
<text text-anchor="middle" x="558" y="-280.2" font-family="Times,serif" font-size="14.00" style="">Branch</text>
</g>
<!-- Branch_graphrename_1&#45;&gt;Branch_graphrename_7 -->
<g id="edge4" class="edge" data-name="Branch_graphrename_1-&gt;Branch_graphrename_7">

<path fill="none" stroke="black" d="M401.61,-359.58C433.14,-344.62 485.86,-319.62 521.27,-302.82" style=""/>
<polygon fill="black" stroke="black" points="522.75,-305.99 530.29,-298.54 519.75,-299.67 522.75,-305.99" style=""/>
<text text-anchor="middle" x="503.39" y="-324.6" font-family="Times,serif" font-size="14.00" style="">FALSE</text>
</g>
<!-- usb_test_current_state -->
<g id="node6" class="node" pointer-events="visible" data-name="usb_test_current_state">

<ellipse fill="none" stroke="black" cx="423" cy="-18" rx="97.28" ry="18" style=""/>
<text text-anchor="middle" x="423" y="-13.8" font-family="Times,serif" font-size="14.00" style="">usb_test_current_state</text>
</g>
<!-- Eq_graphrename_2&#45;&gt;usb_test_current_state -->
<g id="edge5" class="edge" data-name="Eq_graphrename_2-&gt;usb_test_current_state">

<path fill="none" stroke="black" d="M381.26,-266.41C386.2,-252.42 392.91,-231.96 397,-213.6 409.97,-155.36 417.36,-85.78 420.73,-47.6" style=""/>
<polygon fill="black" stroke="black" points="424.2,-48.13 421.56,-37.86 417.23,-47.53 424.2,-48.13" style=""/>
</g>
<!-- &#39;d0_graphrename_3 -->
<g id="node7" class="node" pointer-events="visible" data-name="'d0_graphrename_3">

<ellipse fill="none" stroke="black" cx="361" cy="-195.6" rx="27" ry="18" style=""/>
<text text-anchor="middle" x="361" y="-191.4" font-family="Times,serif" font-size="14.00" style="">'d0</text>
</g>
<!-- Eq_graphrename_2&#45;&gt;&#39;d0_graphrename_3 -->
<g id="edge6" class="edge" data-name="Eq_graphrename_2-&gt;'d0_graphrename_3">

<path fill="none" stroke="black" d="M372.23,-266.25C370.34,-254.48 367.77,-238.59 365.57,-224.95" style=""/>
<polygon fill="black" stroke="black" points="369.05,-224.52 364,-215.21 362.14,-225.64 369.05,-224.52" style=""/>
</g>
<!-- usb_test_send_data -->
<g id="node8" class="node" pointer-events="visible" data-name="usb_test_send_data">

<ellipse fill="none" stroke="black" cx="158" cy="-195.6" rx="86.27" ry="18" style=""/>
<text text-anchor="middle" x="158" y="-191.4" font-family="Times,serif" font-size="14.00" style="">usb_test_send_data</text>
</g>
<!-- Branch_graphrename_4&#45;&gt;usb_test_send_data -->
<g id="edge7" class="edge" data-name="Branch_graphrename_4-&gt;usb_test_send_data">

<path fill="none" stroke="black" d="M255.98,-268.68C237.85,-255.34 210.83,-235.46 189.75,-219.95" style=""/>
<polygon fill="black" stroke="black" points="191.88,-217.18 181.75,-214.07 187.74,-222.82 191.88,-217.18" style=""/>
<text text-anchor="middle" x="246.83" y="-235.8" font-family="Times,serif" font-size="14.00" style="">COND</text>
</g>
<!-- &#39;d1_graphrename_5 -->
<g id="node9" class="node" pointer-events="visible" data-name="'d1_graphrename_5">

<ellipse fill="none" stroke="black" cx="289" cy="-195.6" rx="27" ry="18" style=""/>
<text text-anchor="middle" x="289" y="-191.4" font-family="Times,serif" font-size="14.00" style="">'d1</text>
</g>
<!-- Branch_graphrename_4&#45;&gt;&#39;d1_graphrename_5 -->
<g id="edge8" class="edge" data-name="Branch_graphrename_4-&gt;'d1_graphrename_5">

<path fill="none" stroke="black" d="M278.57,-266.25C280.32,-254.56 282.68,-238.79 284.71,-225.22" style=""/>
<polygon fill="black" stroke="black" points="288.15,-225.92 286.17,-215.51 281.23,-224.88 288.15,-225.92" style=""/>
<text text-anchor="middle" x="301.28" y="-235.8" font-family="Times,serif" font-size="14.00" style="">TRUE</text>
</g>
<!-- &#39;d0_graphrename_6 -->
<g id="node10" class="node" pointer-events="visible" data-name="'d0_graphrename_6">

<ellipse fill="none" stroke="black" cx="27" cy="-195.6" rx="27" ry="18" style=""/>
<text text-anchor="middle" x="27" y="-191.4" font-family="Times,serif" font-size="14.00" style="">'d0</text>
</g>
<!-- Branch_graphrename_4&#45;&gt;&#39;d0_graphrename_6 -->
<g id="edge9" class="edge" data-name="Branch_graphrename_4-&gt;'d0_graphrename_6">

<path fill="none" stroke="black" d="M243.32,-274.4C201.02,-262.37 125.34,-239.53 63,-213.6 61.48,-212.97 59.94,-212.31 58.39,-211.63" style=""/>
<polygon fill="black" stroke="black" points="60.1,-208.57 49.55,-207.63 57.21,-214.94 60.1,-208.57" style=""/>
<text text-anchor="middle" x="176.39" y="-235.8" font-family="Times,serif" font-size="14.00" style="">FALSE</text>
</g>
<!-- Eq_graphrename_8 -->
<g id="node11" class="node" pointer-events="visible" data-name="Eq_graphrename_8">

<ellipse fill="none" stroke="black" cx="610" cy="-195.6" rx="27" ry="18" style=""/>
<text text-anchor="middle" x="610" y="-191.4" font-family="Times,serif" font-size="14.00" style="">Eq</text>
</g>
<!-- Branch_graphrename_7&#45;&gt;Eq_graphrename_8 -->
<g id="edge10" class="edge" data-name="Branch_graphrename_7-&gt;Eq_graphrename_8">

<path fill="none" stroke="black" d="M569.24,-266.82C573.06,-261.05 577.3,-254.49 581,-248.4 585.97,-240.22 591.14,-231.17 595.73,-222.94" style=""/>
<polygon fill="black" stroke="black" points="598.66,-224.88 600.42,-214.43 592.53,-221.5 598.66,-224.88" style=""/>
<text text-anchor="middle" x="609.83" y="-235.8" font-family="Times,serif" font-size="14.00" style="">COND</text>
</g>
<!-- Branch_graphrename_10 -->
<g id="node12" class="node" pointer-events="visible" data-name="Branch_graphrename_10">

<ellipse fill="none" stroke="black" cx="875" cy="-195.6" rx="38.85" ry="18" style=""/>
<text text-anchor="middle" x="875" y="-191.4" font-family="Times,serif" font-size="14.00" style="">Branch</text>
</g>
<!-- Branch_graphrename_7&#45;&gt;Branch_graphrename_10 -->
<g id="edge11" class="edge" data-name="Branch_graphrename_7-&gt;Branch_graphrename_10">

<path fill="none" stroke="black" d="M591.03,-274.36C648.47,-258.63 766.78,-226.23 831.08,-208.63" style=""/>
<polygon fill="black" stroke="black" points="831.87,-212.04 840.59,-206.02 830.02,-205.29 831.87,-212.04" style=""/>
<text text-anchor="middle" x="762.28" y="-235.8" font-family="Times,serif" font-size="14.00" style="">TRUE</text>
</g>
<!-- Branch_graphrename_13 -->
<g id="node13" class="node" pointer-events="visible" data-name="Branch_graphrename_13">

<ellipse fill="none" stroke="black" cx="507" cy="-195.6" rx="38.85" ry="18" style=""/>
<text text-anchor="middle" x="507" y="-191.4" font-family="Times,serif" font-size="14.00" style="">Branch</text>
</g>
<!-- Branch_graphrename_7&#45;&gt;Branch_graphrename_13 -->
<g id="edge12" class="edge" data-name="Branch_graphrename_7-&gt;Branch_graphrename_13">

<path fill="none" stroke="black" d="M548.17,-266.66C540.9,-254.3 530.86,-237.21 522.52,-223.01" style=""/>
<polygon fill="black" stroke="black" points="525.65,-221.44 517.57,-214.59 519.62,-224.98 525.65,-221.44" style=""/>
<text text-anchor="middle" x="558.39" y="-235.8" font-family="Times,serif" font-size="14.00" style="">FALSE</text>
</g>
<!-- Eq_graphrename_8&#45;&gt;usb_test_current_state -->
<g id="edge13" class="edge" data-name="Eq_graphrename_8-&gt;usb_test_current_state">

<path fill="none" stroke="black" d="M610.65,-177.13C610.57,-154.27 607.1,-114.12 586,-88.8 563.88,-62.25 529.81,-45.56 498.53,-35.19" style=""/>
<polygon fill="black" stroke="black" points="499.64,-31.87 489.05,-32.23 497.56,-38.55 499.64,-31.87" style=""/>
</g>
<!-- &#39;d1_graphrename_9 -->
<g id="node14" class="node" pointer-events="visible" data-name="'d1_graphrename_9">

<ellipse fill="none" stroke="black" cx="761" cy="-106.8" rx="27" ry="18" style=""/>
<text text-anchor="middle" x="761" y="-102.6" font-family="Times,serif" font-size="14.00" style="">'d1</text>
</g>
<!-- Eq_graphrename_8&#45;&gt;&#39;d1_graphrename_9 -->
<g id="edge14" class="edge" data-name="Eq_graphrename_8-&gt;'d1_graphrename_9">

<path fill="none" stroke="black" d="M630.05,-183.07C655.89,-168.22 701.03,-142.28 730.97,-125.06" style=""/>
<polygon fill="black" stroke="black" points="732.63,-128.15 739.55,-120.13 729.14,-122.08 732.63,-128.15" style=""/>
</g>
<!-- usb_test_tx_ready -->
<g id="node15" class="node" pointer-events="visible" data-name="usb_test_tx_ready">

<ellipse fill="none" stroke="black" cx="835" cy="-18" rx="81.11" ry="18" style=""/>
<text text-anchor="middle" x="835" y="-13.8" font-family="Times,serif" font-size="14.00" style="">usb_test_tx_ready</text>
</g>
<!-- Branch_graphrename_10&#45;&gt;usb_test_tx_ready -->
<g id="edge15" class="edge" data-name="Branch_graphrename_10-&gt;usb_test_tx_ready">

<path fill="none" stroke="black" d="M864.96,-177.77C857.3,-164.03 847.26,-143.84 842.33,-124.8 835.7,-99.2 834.2,-69.03 834.16,-47.47" style=""/>
<polygon fill="black" stroke="black" points="837.66,-47.71 834.26,-37.68 830.66,-47.64 837.66,-47.71" style=""/>
<text text-anchor="middle" x="861.83" y="-102.6" font-family="Times,serif" font-size="14.00" style="">COND</text>
</g>
<!-- &#39;d3_graphrename_11 -->
<g id="node16" class="node" pointer-events="visible" data-name="'d3_graphrename_11">

<ellipse fill="none" stroke="black" cx="918" cy="-106.8" rx="27" ry="18" style=""/>
<text text-anchor="middle" x="918" y="-102.6" font-family="Times,serif" font-size="14.00" style="">'d3</text>
</g>
<!-- Branch_graphrename_10&#45;&gt;&#39;d3_graphrename_11 -->
<g id="edge16" class="edge" data-name="Branch_graphrename_10-&gt;'d3_graphrename_11">

<path fill="none" stroke="black" d="M883.29,-177.86C889.4,-165.54 897.83,-148.53 904.85,-134.35" style=""/>
<polygon fill="black" stroke="black" points="907.91,-136.06 909.21,-125.55 901.63,-132.95 907.91,-136.06" style=""/>
<text text-anchor="middle" x="918.28" y="-147" font-family="Times,serif" font-size="14.00" style="">TRUE</text>
</g>
<!-- &#39;d1_graphrename_12 -->
<g id="node17" class="node" pointer-events="visible" data-name="'d1_graphrename_12">

<ellipse fill="none" stroke="black" cx="990" cy="-106.8" rx="27" ry="18" style=""/>
<text text-anchor="middle" x="990" y="-102.6" font-family="Times,serif" font-size="14.00" style="">'d1</text>
</g>
<!-- Branch_graphrename_10&#45;&gt;&#39;d1_graphrename_12 -->
<g id="edge17" class="edge" data-name="Branch_graphrename_10-&gt;'d1_graphrename_12">

<path fill="none" stroke="black" d="M902.53,-182.5C914.86,-176.47 929.23,-168.55 941,-159.6 951.6,-151.53 961.95,-141.1 970.38,-131.71" style=""/>
<polygon fill="black" stroke="black" points="972.92,-134.12 976.83,-124.28 967.63,-129.53 972.92,-134.12" style=""/>
<text text-anchor="middle" x="979.39" y="-147" font-family="Times,serif" font-size="14.00" style="">FALSE</text>
</g>
<!-- Branch_graphrename_13&#45;&gt;usb_test_current_state -->
<g id="edge18" class="edge" data-name="Branch_graphrename_13-&gt;usb_test_current_state">

<path fill="none" stroke="black" d="M498.38,-177.87C495.41,-172.08 492.05,-165.56 489,-159.6 481.08,-144.14 478.77,-140.44 471.21,-124.8 458.5,-98.49 444.75,-68.1 435.2,-46.66" style=""/>
<polygon fill="black" stroke="black" points="438.48,-45.44 431.23,-37.72 432.09,-48.28 438.48,-45.44" style=""/>
<text text-anchor="middle" x="492.39" y="-102.6" font-family="Times,serif" font-size="14.00" style="">FALSE</text>
</g>
<!-- Eq_graphrename_14 -->
<g id="node18" class="node" pointer-events="visible" data-name="Eq_graphrename_14">

<ellipse fill="none" stroke="black" cx="550" cy="-106.8" rx="27" ry="18" style=""/>
<text text-anchor="middle" x="550" y="-102.6" font-family="Times,serif" font-size="14.00" style="">Eq</text>
</g>
<!-- Branch_graphrename_13&#45;&gt;Eq_graphrename_14 -->
<g id="edge19" class="edge" data-name="Branch_graphrename_13-&gt;Eq_graphrename_14">

<path fill="none" stroke="black" d="M498.05,-177.89C493.67,-167.3 490.47,-153.62 496.33,-142.8 500.96,-134.25 508.69,-127.45 516.86,-122.22" style=""/>
<polygon fill="black" stroke="black" points="518.55,-125.28 525.55,-117.33 515.12,-119.18 518.55,-125.28" style=""/>
<text text-anchor="middle" x="515.83" y="-147" font-family="Times,serif" font-size="14.00" style="">COND</text>
</g>
<!-- Branch_graphrename_16 -->
<g id="node19" class="node" pointer-events="visible" data-name="Branch_graphrename_16">

<ellipse fill="none" stroke="black" cx="677" cy="-106.8" rx="38.85" ry="18" style=""/>
<text text-anchor="middle" x="677" y="-102.6" font-family="Times,serif" font-size="14.00" style="">Branch</text>
</g>
<!-- Branch_graphrename_13&#45;&gt;Branch_graphrename_16 -->
<g id="edge20" class="edge" data-name="Branch_graphrename_13-&gt;Branch_graphrename_16">

<path fill="none" stroke="black" d="M532.45,-181.61C561.45,-166.8 609.04,-142.5 641.64,-125.85" style=""/>
<polygon fill="black" stroke="black" points="642.99,-129.09 650.31,-121.43 639.81,-122.86 642.99,-129.09" style=""/>
<text text-anchor="middle" x="625.28" y="-147" font-family="Times,serif" font-size="14.00" style="">TRUE</text>
</g>
<!-- Eq_graphrename_14&#45;&gt;usb_test_current_state -->
<g id="edge21" class="edge" data-name="Eq_graphrename_14-&gt;usb_test_current_state">

<path fill="none" stroke="black" d="M532.15,-93.1C517.22,-82.53 495.32,-67.14 476,-54 470.2,-50.05 464,-45.9 457.97,-41.9" style=""/>
<polygon fill="black" stroke="black" points="460.24,-39.2 449.97,-36.61 456.38,-45.04 460.24,-39.2" style=""/>
</g>
<!-- &#39;d3_graphrename_15 -->
<g id="node20" class="node" pointer-events="visible" data-name="'d3_graphrename_15">

<ellipse fill="none" stroke="black" cx="565" cy="-18" rx="27" ry="18" style=""/>
<text text-anchor="middle" x="565" y="-13.8" font-family="Times,serif" font-size="14.00" style="">'d3</text>
</g>
<!-- Eq_graphrename_14&#45;&gt;&#39;d3_graphrename_15 -->
<g id="edge22" class="edge" data-name="Eq_graphrename_14-&gt;'d3_graphrename_15">

<path fill="none" stroke="black" d="M552.96,-88.65C555,-76.88 557.74,-60.99 560.1,-47.35" style=""/>
<polygon fill="black" stroke="black" points="563.53,-48.05 561.78,-37.6 556.63,-46.86 563.53,-48.05" style=""/>
</g>
<!-- Branch_graphrename_16&#45;&gt;usb_test_tx_ready -->
<g id="edge23" class="edge" data-name="Branch_graphrename_16-&gt;usb_test_tx_ready">

<path fill="none" stroke="black" d="M701.74,-92.59C713.89,-86.07 728.74,-78.06 742,-70.8 759.85,-61.02 779.56,-50.07 796.22,-40.76" style=""/>
<polygon fill="black" stroke="black" points="797.81,-43.88 804.83,-35.94 794.4,-37.77 797.81,-43.88" style=""/>
<text text-anchor="middle" x="789.83" y="-58.2" font-family="Times,serif" font-size="14.00" style="">COND</text>
</g>
<!-- &#39;d0_graphrename_17 -->
<g id="node21" class="node" pointer-events="visible" data-name="'d0_graphrename_17">

<ellipse fill="none" stroke="black" cx="637" cy="-18" rx="27" ry="18" style=""/>
<text text-anchor="middle" x="637" y="-13.8" font-family="Times,serif" font-size="14.00" style="">'d0</text>
</g>
<!-- Branch_graphrename_16&#45;&gt;&#39;d0_graphrename_17 -->
<g id="edge24" class="edge" data-name="Branch_graphrename_16-&gt;'d0_graphrename_17">

<path fill="none" stroke="black" d="M662.25,-90.05C657.57,-84.35 652.75,-77.62 649.45,-70.8 645.97,-63.62 643.42,-55.39 641.57,-47.63" style=""/>
<polygon fill="black" stroke="black" points="645.01,-47 639.57,-37.91 638.15,-48.41 645.01,-47" style=""/>
<text text-anchor="middle" x="667.28" y="-58.2" font-family="Times,serif" font-size="14.00" style="">TRUE</text>
</g>
<!-- &#39;d3_graphrename_18 -->
<g id="node22" class="node" pointer-events="visible" data-name="'d3_graphrename_18">

<ellipse fill="none" stroke="black" cx="709" cy="-18" rx="27" ry="18" style=""/>
<text text-anchor="middle" x="709" y="-13.8" font-family="Times,serif" font-size="14.00" style="">'d3</text>
</g>
<!-- Branch_graphrename_16&#45;&gt;&#39;d3_graphrename_18 -->
<g id="edge25" class="edge" data-name="Branch_graphrename_16-&gt;'d3_graphrename_18">

<path fill="none" stroke="black" d="M683.32,-88.65C687.78,-76.57 693.84,-60.13 698.95,-46.26" style=""/>
<polygon fill="black" stroke="black" points="702.1,-47.83 702.28,-37.24 695.53,-45.41 702.1,-47.83" style=""/>
<text text-anchor="middle" x="716.39" y="-58.2" font-family="Times,serif" font-size="14.00" style="">FALSE</text>
</g>
</g>
</svg>